<svg xmlns="http://www.w3.org/2000/svg" width="1200" height="420" viewBox="0 0 1200 420">
  <defs>
    <linearGradient id="bg" x1="0" y1="0" x2="1" y2="0.35"><stop offset="0" stop-color="#f4f3f2"/><stop offset="1" stop-color="#e9e8e6"/></linearGradient>
    <radialGradient id="glow" cx="0.5" cy="0.5" r="0.5"><stop offset="0" stop-color="#ffffff" stop-opacity=".55"/><stop offset="1" stop-color="#ffffff" stop-opacity="0"/></radialGradient>
    <filter id="sh" x="-30%" y="-30%" width="160%" height="170%"><feDropShadow dx="0" dy="26" stdDeviation="22" flood-color="#000" flood-opacity=".22"/></filter>
    <pattern id="grid" width="44" height="44" patternUnits="userSpaceOnUse"><path d="M44 0H0V44" fill="none" stroke="rgba(19,19,19,.045)" stroke-width="1"/></pattern>
  </defs>
  <rect width="1200" height="420" fill="url(#bg)"/>
  <rect width="1200" height="420" fill="url(#grid)"/>
  <ellipse cx="960" cy="200" rx="360" ry="230" fill="url(#glow)"/>
  <text x="80" y="118" font-family="'Noto Sans KR','Apple SD Gothic Neo','Malgun Gothic','Pretendard',sans-serif" font-size="20" font-weight="900" fill="#131313">기프트카드</text>
  <rect x="80" y="132" width="20" height="2" fill="#e91e3f"/>
  <text x="80" y="196" font-family="'Noto Sans KR','Apple SD Gothic Neo','Malgun Gothic','Pretendard',sans-serif" font-size="54" font-weight="900" fill="#131313" letter-spacing="-1">곧 들어옵니다</text>
  <text x="80" y="266" font-family="'Noto Sans KR','Apple SD Gothic Neo','Malgun Gothic','Pretendard',sans-serif" font-size="19" font-weight="700" fill="#5a5a5a">운영진 확인 후 발송 · 준비 중</text>
  <g transform="translate(790,120) rotate(-8 80 80)" filter="url(#sh)">
    <rect width="160" height="160" rx="27" fill="#131313"/><g transform="translate(42.400000000000006,42.400000000000006) scale(3.133333333333333)" fill="none" stroke="#ffffff" stroke-width="1.7" stroke-linecap="round" stroke-linejoin="round"><path d="M21 11.25v8.25a1.5 1.5 0 01-1.5 1.5H5.25a1.5 1.5 0 01-1.5-1.5v-8.25M12 4.875A2.625 2.625 0 109.375 7.5H12m0-2.625V7.5m0-2.625A2.625 2.625 0 1114.625 7.5H12m0 0V21m-8.625-9.75h18c.621 0 1.125-.504 1.125-1.125v-1.5c0-.621-.504-1.125-1.125-1.125h-18c-.621 0-1.125.504-1.125 1.125v1.5c0 .621.504 1.125 1.125 1.125z"/></g></g>
  <g transform="translate(985,52) rotate(10 61 61)" filter="url(#sh)">
    <rect width="122" height="122" rx="21" fill="#ffffff" stroke="#dedddb" stroke-width="1"/><g transform="translate(32.33,32.33) scale(2.3891666666666667)" fill="none" stroke="#131313" stroke-width="1.7" stroke-linecap="round" stroke-linejoin="round"><path d="M4 10.5V8a3 3 0 0 1 3-3h10a3 3 0 0 1 3 3v2.5"/><path d="M3.5 10.5h17v8.5a1.5 1.5 0 0 1-1.5 1.5H5a1.5 1.5 0 0 1-1.5-1.5Z"/><path d="M10.5 10.5V14h3v-3.5"/></g></g>
  <g transform="translate(1000,250) rotate(-4 52 52)" filter="url(#sh)">
    <rect width="104" height="104" rx="18" fill="#ffffff" stroke="#dedddb" stroke-width="1"/><g transform="translate(27.560000000000002,27.560000000000002) scale(2.0366666666666666)" fill="none" stroke="#3f9e93" stroke-width="1.7" stroke-linecap="round" stroke-linejoin="round"><path d="M12 3.2 20 7.6v8.8L12 20.8 4 16.4V7.6Z"/><path d="M4 7.6 12 12l8-4.4M12 12v8.8"/></g></g>
</svg>
