<svg xmlns="http://www.w3.org/2000/svg" width="1200" height="420" viewBox="0 0 1200 420">
  <defs>
    <linearGradient id="bg" x1="0" y1="0" x2="1" y2="0.35"><stop offset="0" stop-color="#e91e3f"/><stop offset="1" stop-color="#ff5c77"/></linearGradient>
    <radialGradient id="glow" cx="0.5" cy="0.5" r="0.5"><stop offset="0" stop-color="#ffffff" stop-opacity=".55"/><stop offset="1" stop-color="#ffffff" stop-opacity="0"/></radialGradient>
    <filter id="sh" x="-30%" y="-30%" width="160%" height="170%"><feDropShadow dx="0" dy="26" stdDeviation="22" flood-color="#000" flood-opacity=".22"/></filter>
    
  </defs>
  <rect width="1200" height="420" fill="url(#bg)"/>
  
  <ellipse cx="960" cy="200" rx="360" ry="230" fill="url(#glow)"/>
  <text x="80" y="118" font-family="'Noto Sans KR','Apple SD Gothic Neo','Malgun Gothic','Pretendard',sans-serif" font-size="20" font-weight="900" fill="#ffffff">시즌 1 · UP!</text>
  <rect x="80" y="132" width="20" height="2" fill="#ffffff"/>
  <text x="80" y="196" font-family="'Noto Sans KR','Apple SD Gothic Neo','Malgun Gothic','Pretendard',sans-serif" font-size="54" font-weight="900" fill="#ffffff" letter-spacing="-1">시즌 패스</text><text x="80" y="262" font-family="'Noto Sans KR','Apple SD Gothic Neo','Malgun Gothic','Pretendard',sans-serif" font-size="54" font-weight="900" fill="#ffffff" letter-spacing="-1">티어 보상 두 배</text>
  <text x="80" y="332" font-family="'Noto Sans KR','Apple SD Gothic Neo','Malgun Gothic','Pretendard',sans-serif" font-size="19" font-weight="700" fill="rgba(255,255,255,.85)">50,000 XP 로 해금 · 티어마다 XP · 빙옥 · 아이템</text>
  <g transform="translate(790,120) rotate(-8 80 80)" filter="url(#sh)">
    <rect width="160" height="160" rx="27" fill="rgba(255,255,255,.92)"/><g transform="translate(42.400000000000006,42.400000000000006) scale(3.133333333333333)" fill="none" stroke="#e91e3f" stroke-width="1.7" stroke-linecap="round" stroke-linejoin="round"><path d="M11.48 3.499a.562.562 0 011.04 0l2.125 5.111a.563.563 0 00.475.345l5.518.442c.499.04.701.663.321.988l-4.204 3.602a.563.563 0 00-.182.557l1.285 5.385a.562.562 0 01-.84.61l-4.725-2.885a.563.563 0 00-.586 0L6.982 20.54a.562.562 0 01-.84-.61l1.285-5.386a.562.562 0 00-.182-.557l-4.204-3.602a.562.562 0 01.321-.988l5.518-.442a.563.563 0 00.475-.345L11.48 3.5z"/></g></g>
  <g transform="translate(985,52) rotate(10 61 61)" filter="url(#sh)">
    <rect width="122" height="122" rx="21" fill="rgba(19,19,19,.88)"/><g transform="translate(32.33,32.33) scale(2.3891666666666667)" fill="none" stroke="#ffffff" stroke-width="1.7" stroke-linecap="round" stroke-linejoin="round"><path d="M12 9a5.5 5.5 0 1 0 0 11 5.5 5.5 0 0 0 0-11Z"/><path d="M8.5 9 6.5 3h11l-2 6"/></g></g>
  <g transform="translate(1000,250) rotate(-4 52 52)" filter="url(#sh)">
    <rect width="104" height="104" rx="18" fill="rgba(255,255,255,.92)"/><g transform="translate(27.560000000000002,27.560000000000002) scale(2.0366666666666666)" fill="none" stroke="#e91e3f" stroke-width="1.7" stroke-linecap="round" stroke-linejoin="round"><path d="M4.5 18.5h15"/><path d="M4.5 18.5 3.2 7.5l4.9 3.6L12 5l3.9 6.1 4.9-3.6-1.3 11Z"/></g></g>
</svg>
