<svg xmlns="http://www.w3.org/2000/svg" viewBox="0 0 24 24" shape-rendering="crispEdges"><path d="M6 11h1v1h-1zM17 11h1v1h-1zM5 12h1v1h-1zM7 12h3v1h-3zM14 12h3v1h-3zM18 12h1v1h-1zM5 13h1v1h-1zM7 13h1v1h-1zM9 13h1v1h-1zM14 13h1v1h-1zM16 13h1v1h-1zM18 13h1v1h-1zM5 14h2v1h-2zM8 14h1v1h-1zM10 14h4v1h-4zM15 14h1v1h-1zM17 14h2v1h-2zM6 15h3v1h-3zM10 15h1v1h-1zM13 15h1v1h-1zM15 15h3v1h-3zM8 16h8v1h-8zM9 17h6v1h-6zM10 18h1v1h-1zM13 18h1v1h-1z" fill="#151a24"/><path d="M6 12h1v1h-1zM17 12h1v1h-1z" fill="#ffffff"/><path d="M6 13h1v1h-1zM17 13h1v1h-1zM7 14h1v1h-1zM16 14h1v1h-1zM9 15h1v1h-1zM14 15h1v1h-1z" fill="#4a5568"/><path d="M8 13h1v1h-1zM15 13h1v1h-1z" fill="#c9d2de"/><path d="M9 14h1v1h-1zM14 14h1v1h-1z" fill="#5d6b82"/><path d="M11 15h1v1h-1z" fill="#8fb8ea"/><path d="M12 15h1v1h-1z" fill="#4f7fc0"/></svg>